<svg width="26" height="26" viewBox="0 0 26 26" fill="none" xmlns="http://www.w3.org/2000/svg">
<path d="M13 18V8" stroke="#29436D" stroke-width="2" stroke-linecap="round"/>
<path d="M8 15V11" stroke="#29436D" stroke-width="2" stroke-linecap="round"/>
<path d="M18 15V11" stroke="#29436D" stroke-width="2" stroke-linecap="round"/>
<path d="M19 2.60538C17.2349 1.58436 15.1857 1 13 1C6.37258 1 1 6.37258 1 13C1 14.9196 1.45074 16.7339 2.25215 18.343C2.46513 18.7706 2.53601 19.2593 2.41254 19.7207L1.69781 22.392C1.38754 23.5516 2.44841 24.6124 3.60802 24.3022L6.27927 23.5875C6.74072 23.464 7.22945 23.5349 7.65704 23.7478C9.26604 24.5493 11.0804 25 13 25C19.6274 25 25 19.6274 25 13C25 10.8143 24.4156 8.76504 23.3946 7" stroke="#29436D" stroke-width="2" stroke-linecap="round"/>
</svg>
