<svg width="54" height="48" viewBox="0 0 54 48" fill="none" xmlns="http://www.w3.org/2000/svg">
<path d="M17.959 13.0322C16.7286 12.8757 15.9644 12.1857 16.0145 11.0244C16.0672 9.90346 16.7617 9.11833 18.0414 9.19743C19.1452 9.26643 19.7472 9.89757 19.7905 10.9882C19.8406 12.2521 19.045 12.7916 17.959 13.0322Z" fill="#E15648"/>
<path d="M24.1157 13.0667C22.8276 12.7655 22.0269 12.1015 22.1704 10.9133C22.3054 9.79323 23.0484 9.05353 24.3144 9.20669C25.408 9.33881 25.9702 10.0297 25.9651 11.1068C25.9566 12.3927 25.0208 12.7848 24.1157 13.0667Z" fill="#E15648"/>
<path d="M11.6873 9.17302C12.9389 9.20753 13.6267 9.86054 13.6344 11.0749C13.642 12.3085 12.86 13.0036 11.6882 12.9927C10.6421 12.9834 9.91015 12.2791 9.87364 11.2162C9.83458 10.0608 10.4273 9.28326 11.6873 9.17302Z" fill="#E15648"/>
<path d="M52.722 8.10083C50.0864 3.34288 42.7636 -0.0669536 37.5492 1.03712C39.7807 5.04948 39.7807 5.04948 43.797 6.48006C48.1631 8.03098 49.9955 13.0734 47.5331 17.0091C45.2991 20.578 41.7056 22.2972 37.5866 23.9996C37.5866 19.6776 37.6485 15.714 37.573 11.753C37.4388 4.78693 32.9114 0.161939 25.9622 0.0643233C17.9873 -0.0475987 10.0091 0.0786291 2.03337 0.000367896C0.408164 -0.015621 -0.0282797 0.486765 0.000590121 2.05283C0.0948416 6.88651 0.0345546 11.7236 0.0345546 16.5589C0.0345546 21.231 0.0345547 21.3093 4.66307 21.4524C6.19911 21.4995 6.33242 22.0094 6.02165 23.2616C5.47708 25.421 5.0013 27.5971 4.59429 29.7901C4.49409 30.3245 3.99991 31.0314 4.8244 31.5018C5.49775 31.8847 11.8873 31.4748 12.4885 30.9127C17.2885 26.4299 22.0656 21.9219 26.9497 17.3289C22.1454 16.2964 18.2557 17.0403 15.3067 20.9474C14.3243 22.2493 12.902 23.2238 11.0909 24.8908C11.4373 23.2078 11.6309 22.3073 11.8075 21.4044C12.7967 16.3511 12.795 16.2711 7.63751 16.2711C5.93928 16.2711 5.29396 15.8504 5.40604 14.0933C5.54148 11.7718 5.54148 9.44447 5.40604 7.12298C5.32623 5.63854 5.82465 5.25481 7.28768 5.27164C13.4803 5.34906 19.6745 5.2607 25.868 5.32129C29.7849 5.35916 32.0954 7.70195 32.1514 11.6259C32.2091 15.7166 32.0903 19.8114 32.2057 23.8995C32.249 25.4428 31.7744 26.1413 30.2969 26.7362C26.1244 28.4193 22.0605 30.3741 18.9477 33.7511C16.6551 36.242 16.2305 39.1789 17.297 42.3195C18.3474 45.407 20.5873 47.2003 23.7902 47.8062C29.8775 48.9574 35.8688 44.8609 37.1654 38.6824C37.6134 36.4906 37.7421 34.2465 37.5475 32.0185C37.4049 30.258 38.0408 29.3854 39.6949 28.729C43.4531 27.2378 46.9455 25.2409 49.818 22.3452C54.0534 18.0787 55.1683 12.5163 52.722 8.10083ZM32.0597 36.8126C31.7515 39.8042 29.5973 42.2135 26.8894 42.6443C25.1819 42.9161 23.4836 42.8572 22.5114 41.0454C21.5697 39.29 22.2227 37.8401 23.4454 36.5164C25.0392 34.7938 28.6981 32.8137 32.0869 31.8821C32.0886 33.6796 32.2202 35.26 32.0597 36.8126Z" fill="#2A40FF"/>
</svg>
