<svg width="83" height="84" viewBox="0 0 83 84" fill="none" xmlns="http://www.w3.org/2000/svg">
<path d="M41.5 58.6667V25.3334" stroke="#828282" stroke-width="2.5" stroke-linecap="round"/>
<path d="M24.8333 48.6667V35.3334" stroke="#828282" stroke-width="2.5" stroke-linecap="round"/>
<path d="M58.1667 48.6667V35.3334" stroke="#828282" stroke-width="2.5" stroke-linecap="round"/>
<path d="M61.5 7.35128C55.6164 3.94788 48.7856 2 41.5 2C19.4086 2 1.5 19.9086 1.5 42C1.5 48.3988 3.00248 54.4464 5.67384 59.81C6.38376 61.2352 6.62004 62.8644 6.20848 64.4024L3.82604 73.3068C2.7918 77.172 6.32804 80.708 10.1934 79.674L19.0976 77.2916C20.6357 76.88 22.2648 77.1164 23.6901 77.826C29.0535 80.4976 35.1012 82 41.5 82C63.5912 82 81.5 64.0912 81.5 42C81.5 34.7144 79.552 27.8835 76.1488 22" stroke="#828282" stroke-width="2.5" stroke-linecap="round"/>
</svg>
