<svg width="14" height="14" viewBox="0 0 14 14" fill="none" xmlns="http://www.w3.org/2000/svg">
<path d="M8.1233 2.60454C8.52694 2.16721 8.72876 1.94855 8.94322 1.821C9.4607 1.51325 10.0979 1.50368 10.624 1.79576C10.842 1.91681 11.05 2.12932 11.4661 2.55433C11.8822 2.97935 12.0902 3.19185 12.2087 3.41459C12.4946 3.95202 12.4852 4.60293 12.184 5.13155C12.0591 5.35063 11.8451 5.5568 11.417 5.96913L6.3233 10.8752C5.51202 11.6566 5.10637 12.0473 4.59941 12.2453C4.09244 12.4433 3.53511 12.4287 2.42045 12.3996L2.26879 12.3956C1.92945 12.3867 1.75978 12.3823 1.66115 12.2704C1.56252 12.1584 1.57599 11.9856 1.60292 11.6399L1.61754 11.4522C1.69334 10.4793 1.73124 9.99289 1.92122 9.55562C2.1112 9.11835 2.4389 8.7633 3.09431 8.05319L8.1233 2.60454Z" stroke="white" stroke-linejoin="round"/>
<path d="M7.54175 2.6665L11.3334 6.45817" stroke="white" stroke-linejoin="round"/>
<path d="M8.08337 12.4165L12.4167 12.4165" stroke="white" stroke-linecap="round" stroke-linejoin="round"/>
</svg>
