<svg width="60" height="44" viewBox="0 0 60 44" fill="none" xmlns="http://www.w3.org/2000/svg">
<path d="M31.1667 16.1667H19.5" stroke="#121B6B" stroke-width="1.5" stroke-linecap="round"/>
<path d="M27.6667 22H19.5" stroke="#121B6B" stroke-width="1.5" stroke-linecap="round"/>
<path d="M25.3333 27.8333H19.5" stroke="#121B6B" stroke-width="1.5" stroke-linecap="round"/>
<path d="M29.2021 27.4743C29.0037 27.915 29.2002 28.433 29.6408 28.6312C30.0816 28.8296 30.5996 28.6331 30.7978 28.1925L29.2021 27.4743ZM35.2499 16.1667L36.0478 15.8076C35.9065 15.4936 35.5942 15.2917 35.2499 15.2917C34.9057 15.2917 34.5933 15.4936 34.4521 15.8076L35.2499 16.1667ZM39.7021 28.1925C39.9003 28.6331 40.4183 28.8296 40.859 28.6312C41.2997 28.433 41.4962 27.915 41.2978 27.4743L39.7021 28.1925ZM31.9091 22.7159C31.4258 22.7159 31.0341 23.1077 31.0341 23.5909C31.0341 24.0742 31.4258 24.4659 31.9091 24.4659V22.7159ZM30.7978 28.1925L36.0478 16.5258L34.4521 15.8076L29.2021 27.4743L30.7978 28.1925ZM41.2978 27.4743L39.3888 23.2319L37.7929 23.95L39.7021 28.1925L41.2978 27.4743ZM39.3888 23.2319L36.0478 15.8076L34.4521 16.5258L37.7929 23.95L39.3888 23.2319ZM38.5908 22.7159H31.9091V24.4659H38.5908V22.7159Z" fill="#121B6B"/>
</svg>
