<svg width="55" height="40" viewBox="0 0 55 40" fill="none" xmlns="http://www.w3.org/2000/svg">
<path d="M20.75 18C19.65 18 18.75 18.9 18.75 20C18.75 21.1 19.65 22 20.75 22C21.85 22 22.75 21.1 22.75 20C22.75 18.9 21.85 18 20.75 18Z" stroke="#121B6B" stroke-width="1.5"/>
<path d="M34.75 18C33.65 18 32.75 18.9 32.75 20C32.75 21.1 33.65 22 34.75 22C35.85 22 36.75 21.1 36.75 20C36.75 18.9 35.85 18 34.75 18Z" stroke="#121B6B" stroke-width="1.5"/>
<path d="M27.75 18C26.65 18 25.75 18.9 25.75 20C25.75 21.1 26.65 22 27.75 22C28.85 22 29.75 21.1 29.75 20C29.75 18.9 28.85 18 27.75 18Z" stroke="#121B6B" stroke-width="1.5"/>
</svg>
